<?xml version="1.0" encoding="UTF-8" standalone="no"?>
<!-- Created with Inkscape (http://www.inkscape.org/) -->

<svg
   width="127mm"
   height="127mm"
   viewBox="0 0 127 127"
   version="1.1"
   id="svg4047"
   inkscape:version="1.1 (c68e22c387, 2021-05-23)"
   sodipodi:docname="user-grey.svg"
   xmlns:inkscape="http://www.inkscape.org/namespaces/inkscape"
   xmlns:sodipodi="http://sodipodi.sourceforge.net/DTD/sodipodi-0.dtd"
   xmlns="http://www.w3.org/2000/svg"
   xmlns:svg="http://www.w3.org/2000/svg"
   xmlns:rdf="http://www.w3.org/1999/02/22-rdf-syntax-ns#"
   xmlns:cc="http://creativecommons.org/ns#"
   xmlns:dc="http://purl.org/dc/elements/1.1/">
  <defs
     id="defs4041" />
  <sodipodi:namedview
     id="base"
     pagecolor="#ffffff"
     bordercolor="#666666"
     borderopacity="1.0"
     inkscape:pageopacity="0.0"
     inkscape:pageshadow="2"
     inkscape:zoom="1.4"
     inkscape:cx="59.642857"
     inkscape:cy="233.21429"
     inkscape:document-units="mm"
     inkscape:current-layer="layer1"
     showgrid="false"
     fit-margin-top="0"
     fit-margin-left="0"
     fit-margin-right="0"
     fit-margin-bottom="0"
     inkscape:window-width="1920"
     inkscape:window-height="1001"
     inkscape:window-x="-9"
     inkscape:window-y="-9"
     inkscape:window-maximized="1"
     inkscape:pagecheckerboard="1" />
  <metadata
     id="metadata4044">
    <rdf:RDF>
      <cc:Work
         rdf:about="">
        <dc:format>image/svg+xml</dc:format>
        <dc:type
           rdf:resource="http://purl.org/dc/dcmitype/StillImage" />
      </cc:Work>
    </rdf:RDF>
  </metadata>
  <g
     inkscape:label="Calque 1"
     inkscape:groupmode="layer"
     id="layer1"
     transform="translate(-43.845235,-35.440477)">
    <g
       id="g4110"
       transform="matrix(0.26458333,0,0,0.26458333,43.845235,35.440477)"
       style="stroke-width:6.8031497;stroke-miterlimit:4;stroke-dasharray:none;fill:#808080;fill-opacity:1;stroke:none;stroke-opacity:1">
      <g
         id="g4053"
         style="stroke-width:6.8031497;stroke-miterlimit:4;stroke-dasharray:none;fill:#808080;fill-opacity:1;stroke:none;stroke-opacity:1">
        <g
           id="g4051"
           style="stroke-width:6.8031497;stroke-miterlimit:4;stroke-dasharray:none;fill:#808080;fill-opacity:1;stroke:none;stroke-opacity:1">
          <path
             id="path4049"
             d="M 240,0 C 107.664,0 0,107.664 0,240 c 0,57.96 20.656,111.184 54.992,152.704 0.088,0.12 0.096,0.272 0.192,0.384 24.792,29.896 55.928,52.816 90.624,67.624 0.4,0.168 0.792,0.352 1.192,0.52 2.808,1.184 5.648,2.28 8.496,3.352 1.12,0.424 2.24,0.856 3.376,1.264 2.456,0.88 4.928,1.712 7.416,2.512 1.592,0.512 3.184,1.016 4.792,1.496 2.2,0.656 4.408,1.288 6.632,1.888 1.952,0.528 3.92,1.016 5.888,1.488 1.992,0.48 3.992,0.96 6,1.384 2.24,0.48 4.504,0.904 6.776,1.32 1.824,0.336 3.64,0.688 5.48,0.984 2.52,0.408 5.056,0.728 7.6,1.056 1.64,0.208 3.272,0.448 4.92,0.624 2.88,0.304 5.784,0.52 8.696,0.72 1.352,0.096 2.696,0.24 4.056,0.312 4.248,0.24 8.544,0.368 12.872,0.368 4.328,0 8.624,-0.128 12.888,-0.352 1.36,-0.072 2.704,-0.216 4.056,-0.312 2.912,-0.208 5.816,-0.416 8.696,-0.72 1.648,-0.176 3.28,-0.416 4.92,-0.624 2.544,-0.328 5.08,-0.648 7.6,-1.056 1.832,-0.296 3.656,-0.648 5.48,-0.984 2.264,-0.416 4.528,-0.84 6.776,-1.32 2.008,-0.432 4,-0.904 6,-1.384 1.968,-0.48 3.936,-0.968 5.888,-1.488 2.224,-0.592 4.432,-1.232 6.632,-1.888 1.608,-0.48 3.2,-0.984 4.792,-1.496 2.488,-0.8 4.96,-1.632 7.416,-2.512 1.128,-0.408 2.248,-0.84 3.376,-1.264 2.856,-1.072 5.688,-2.176 8.496,-3.352 0.4,-0.168 0.792,-0.352 1.192,-0.52 34.688,-14.808 65.832,-37.728 90.624,-67.624 0.096,-0.112 0.104,-0.272 0.192,-0.384 C 459.344,351.184 480,297.96 480,240 480,107.664 372.336,0 240,0 Z m 97.256,441.76 c -0.12,0.056 -0.232,0.12 -0.352,0.176 -2.856,1.376 -5.76,2.672 -8.688,3.936 -0.664,0.28 -1.32,0.568 -1.984,0.848 -2.56,1.072 -5.152,2.088 -7.76,3.064 -1.088,0.408 -2.176,0.808 -3.272,1.192 -2.312,0.824 -4.632,1.616 -6.976,2.368 -1.456,0.464 -2.92,0.904 -4.384,1.336 -2.08,0.624 -4.168,1.224 -6.28,1.784 -1.776,0.472 -3.568,0.904 -5.36,1.328 -1.88,0.448 -3.752,0.904 -5.648,1.304 -2.072,0.44 -4.16,0.816 -6.24,1.192 -1.688,0.312 -3.368,0.64 -5.072,0.912 -2.344,0.368 -4.712,0.664 -7.072,0.96 -1.496,0.192 -2.984,0.416 -4.496,0.576 -2.696,0.288 -5.416,0.472 -8.128,0.664 -1.208,0.08 -2.408,0.216 -3.632,0.28 -3.96,0.208 -7.928,0.32 -11.912,0.32 -3.984,0 -7.952,-0.112 -11.904,-0.32 -1.216,-0.064 -2.416,-0.192 -3.632,-0.28 -2.72,-0.184 -5.432,-0.376 -8.128,-0.664 -1.512,-0.16 -3,-0.384 -4.496,-0.576 -2.36,-0.296 -4.728,-0.592 -7.072,-0.96 -1.704,-0.272 -3.384,-0.6 -5.072,-0.912 -2.088,-0.376 -4.176,-0.76 -6.24,-1.192 -1.896,-0.4 -3.776,-0.856 -5.648,-1.304 -1.792,-0.432 -3.584,-0.856 -5.36,-1.328 -2.104,-0.56 -4.2,-1.168 -6.28,-1.784 -1.464,-0.432 -2.928,-0.872 -4.384,-1.336 -2.344,-0.752 -4.672,-1.544 -6.976,-2.368 -1.096,-0.392 -2.184,-0.792 -3.272,-1.192 -2.608,-0.976 -5.2,-1.992 -7.76,-3.064 -0.664,-0.272 -1.312,-0.56 -1.976,-0.84 -2.928,-1.256 -5.832,-2.56 -8.696,-3.936 -0.12,-0.056 -0.232,-0.112 -0.352,-0.176 -27.912,-13.504 -52.568,-32.672 -72.576,-55.952 15.464,-56.944 59.24,-102.848 115.56,-121.112 1.112,0.68 2.272,1.288 3.416,1.928 0.672,0.376 1.336,0.776 2.016,1.136 2.384,1.264 4.8,2.448 7.272,3.512 1.896,0.832 3.856,1.536 5.808,2.256 0.384,0.136 0.768,0.288 1.152,0.424 10.848,3.84 22.456,6.04 34.6,6.04 12.144,0 23.752,-2.2 34.592,-6.04 0.384,-0.136 0.768,-0.288 1.152,-0.424 1.952,-0.72 3.912,-1.424 5.808,-2.256 2.472,-1.064 4.888,-2.248 7.272,-3.512 0.68,-0.368 1.344,-0.76 2.016,-1.136 1.144,-0.64 2.312,-1.248 3.432,-1.936 56.32,18.272 100.088,64.176 115.56,121.112 -20.008,23.272 -44.664,42.44 -72.576,55.952 z M 152,176 c 0,-48.52 39.48,-88 88,-88 48.52,0 88,39.48 88,88 0,30.864 -16.008,58.024 -40.128,73.736 -3.152,2.048 -6.432,3.88 -9.8,5.48 -0.4,0.192 -0.792,0.392 -1.192,0.576 -23.168,10.536 -50.592,10.536 -73.76,0 -0.4,-0.184 -0.8,-0.384 -1.192,-0.576 -3.376,-1.6 -6.648,-3.432 -9.8,-5.48 C 168.008,234.024 152,206.864 152,176 Z M 421.832,370.584 C 403.696,317.032 362.32,273.752 309.456,253.192 330.6,234.144 344,206.64 344,176 344,118.656 297.344,72 240,72 c -57.344,0 -104,46.656 -104,104 0,30.64 13.4,58.144 34.552,77.192 C 117.688,273.76 76.312,317.032 58.176,370.584 31.672,333.792 16,288.704 16,240 16,116.488 116.488,16 240,16 c 123.512,0 224,100.488 224,224 0,48.704 -15.672,93.792 -42.168,130.584 z"
             inkscape:connector-curvature="0"
             style="stroke-width:6.8031497;stroke-miterlimit:4;stroke-dasharray:none;fill:#808080;fill-opacity:1;stroke:none;stroke-opacity:1" />
        </g>
      </g>
      <g
         id="g4055"
         style="stroke-width:6.8031497;stroke-miterlimit:4;stroke-dasharray:none;fill:#808080;fill-opacity:1;stroke:none;stroke-opacity:1" />
      <g
         id="g4057"
         style="stroke-width:6.8031497;stroke-miterlimit:4;stroke-dasharray:none;fill:#808080;fill-opacity:1;stroke:none;stroke-opacity:1" />
      <g
         id="g4059"
         style="stroke-width:6.8031497;stroke-miterlimit:4;stroke-dasharray:none;fill:#808080;fill-opacity:1;stroke:none;stroke-opacity:1" />
      <g
         id="g4061"
         style="stroke-width:6.8031497;stroke-miterlimit:4;stroke-dasharray:none;fill:#808080;fill-opacity:1;stroke:none;stroke-opacity:1" />
      <g
         id="g4063"
         style="stroke-width:6.8031497;stroke-miterlimit:4;stroke-dasharray:none;fill:#808080;fill-opacity:1;stroke:none;stroke-opacity:1" />
      <g
         id="g4065"
         style="stroke-width:6.8031497;stroke-miterlimit:4;stroke-dasharray:none;fill:#808080;fill-opacity:1;stroke:none;stroke-opacity:1" />
      <g
         id="g4067"
         style="stroke-width:6.8031497;stroke-miterlimit:4;stroke-dasharray:none;fill:#808080;fill-opacity:1;stroke:none;stroke-opacity:1" />
      <g
         id="g4069"
         style="stroke-width:6.8031497;stroke-miterlimit:4;stroke-dasharray:none;fill:#808080;fill-opacity:1;stroke:none;stroke-opacity:1" />
      <g
         id="g4071"
         style="stroke-width:6.8031497;stroke-miterlimit:4;stroke-dasharray:none;fill:#808080;fill-opacity:1;stroke:none;stroke-opacity:1" />
      <g
         id="g4073"
         style="stroke-width:6.8031497;stroke-miterlimit:4;stroke-dasharray:none;fill:#808080;fill-opacity:1;stroke:none;stroke-opacity:1" />
      <g
         id="g4075"
         style="stroke-width:6.8031497;stroke-miterlimit:4;stroke-dasharray:none;fill:#808080;fill-opacity:1;stroke:none;stroke-opacity:1" />
      <g
         id="g4077"
         style="stroke-width:6.8031497;stroke-miterlimit:4;stroke-dasharray:none;fill:#808080;fill-opacity:1;stroke:none;stroke-opacity:1" />
      <g
         id="g4079"
         style="stroke-width:6.8031497;stroke-miterlimit:4;stroke-dasharray:none;fill:#808080;fill-opacity:1;stroke:none;stroke-opacity:1" />
      <g
         id="g4081"
         style="stroke-width:6.8031497;stroke-miterlimit:4;stroke-dasharray:none;fill:#808080;fill-opacity:1;stroke:none;stroke-opacity:1" />
      <g
         id="g4083"
         style="stroke-width:6.8031497;stroke-miterlimit:4;stroke-dasharray:none;fill:#808080;fill-opacity:1;stroke:none;stroke-opacity:1" />
    </g>
    <path
       style="fill:#808080;fill-opacity:1;stroke:#808080;stroke-width:6.87118119;stroke-miterlimit:4;stroke-dasharray:none;stroke-opacity:1"
       d="M 51.876792,360.43901 C 35.064202,334.43291 23.461577,303.48849 18.615307,271.73002 16.182035,255.78434 16.18026,223.98894 18.611764,208.27059 30.114464,133.91185 75.40514,71.907086 142.01331,39.328869 c 32.05237,-15.676892 61.90034,-22.553922 97.9848,-22.575891 36.07639,-0.02196 65.83972,6.833714 97.9848,22.569797 45.07571,22.066065 80.51921,57.441481 102.55768,102.360685 30.76647,62.70878 30.59949,135.68243 -0.45227,197.65612 -5.52312,11.02313 -7.69777,14.79223 -14.47901,25.09505 l -3.50582,5.32644 -4.39837,-10.79248 C 406.30595,330.99792 386.7896,304.55297 362.66252,284.38502 350.63612,274.3321 338.52744,266.57259 323.301,259.16131 l -12.99628,-6.32577 3.57459,-3.43221 c 6.36874,-6.11504 15.45306,-19.04877 20.03492,-28.52457 15.95805,-33.00301 13.27638,-71.6923 -7.0909,-102.30245 -14.65874,-22.030707 -36.72891,-37.516114 -62.77654,-44.046789 -12.71396,-3.187649 -35.3834,-3.187649 -48.09736,0 -12.41985,3.113911 -22.59338,7.567138 -33.20327,14.533966 -43.42925,28.517163 -59.28097,85.379653 -36.72644,131.743173 4.64944,9.55747 13.74025,22.49298 20.09718,28.59667 l 3.5746,3.43221 -12.99629,6.32577 c -7.14795,3.47918 -16.98099,8.94992 -21.85118,12.1572 -32.01187,21.08146 -58.74786,53.41781 -72.544278,87.74003 l -4.338222,10.79247 z"
       id="path4655"
       inkscape:connector-curvature="0"
       transform="matrix(0.26458333,0,0,0.26458333,43.845235,35.440477)" />
  </g>
</svg>
