<?xml version="1.0" encoding="UTF-8" standalone="no"?>
<!-- Created with Inkscape (http://www.inkscape.org/) -->

<svg
   version="1.1"
   id="svg9"
   width="546.60999"
   height="481.62085"
   viewBox="0 0 546.60998 481.62085"
   sodipodi:docname="like-gold.svg"
   inkscape:version="1.1 (c68e22c387, 2021-05-23)"
   xmlns:inkscape="http://www.inkscape.org/namespaces/inkscape"
   xmlns:sodipodi="http://sodipodi.sourceforge.net/DTD/sodipodi-0.dtd"
   xmlns="http://www.w3.org/2000/svg"
   xmlns:svg="http://www.w3.org/2000/svg">
  <defs
     id="defs13" />
  <sodipodi:namedview
     id="namedview11"
     pagecolor="#505050"
     bordercolor="#ffffff"
     borderopacity="1"
     inkscape:pageshadow="0"
     inkscape:pageopacity="0"
     inkscape:pagecheckerboard="1"
     showgrid="false"
     fit-margin-top="0"
     fit-margin-left="0"
     fit-margin-right="0"
     fit-margin-bottom="0"
     inkscape:zoom="1.0137902"
     inkscape:cx="613.04595"
     inkscape:cy="153.38479"
     inkscape:window-width="1920"
     inkscape:window-height="1001"
     inkscape:window-x="-9"
     inkscape:window-y="-9"
     inkscape:window-maximized="1"
     inkscape:current-layer="g15" />
  <g
     inkscape:groupmode="layer"
     inkscape:label="Image"
     id="g15"
     transform="translate(239.93288,-207.23607)">
    <path
       style="fill:#ffa500;fill-opacity:1;stroke:none;stroke-width:1.06667"
       d="m 26.202415,686.9246 -3.43635,-1.9323 -54.66077,-46.93333 -54.66077,-46.93333 -24.285885,-21.62184 -24.2859,-21.62183 -16.81699,-16.79685 -16.81698,-16.79685 -9.6334,-11.18131 -9.63341,-11.18132 -5.4227,-6.93333 -5.42271,-6.93333 -7.00049,-10.4284 -7.00049,-10.42839 -5.91575,-11.56519 -5.91574,-11.56521 -3.23843,-8.4064 -3.23843,-8.40641 -2.57349,-9.6 -2.5735,-9.6 -1.09591,-7.46666 -1.09591,-7.46667 -0.70565,-11.73333 -0.70564,-11.73333 1.23858,-12.26667 1.23858,-12.26667 2.08678,-9.6 2.08678,-9.6 2.79237,-8.53333 2.79237,-8.53333 4.56353,-9.6 4.56353,-9.6 6.62134,-10.07443 6.62135,-10.07443 11.34989,-11.37143 11.34989,-11.37143 8.00847,-5.34575 8.00847,-5.34575 8.52486,-4.27378 8.52486,-4.27377 7.75075,-2.78463 7.75076,-2.78463 10.91591,-2.31715 10.91592,-2.31714 17.599995,-0.0443 17.6,-0.0443 9.6,2.25334 9.6,2.25334 9.22711,3.35391 9.2271,3.35391 9.94352,5.8758 9.94351,5.8758 7.20266,5.81947 7.2026403,5.81948 7.60535,7.70895 7.6053497,7.70895 6.38804,8.53333 6.38804,8.53333 4.96667,8.22885 4.96667,8.22885 h 0.53333 0.53333 l 4.96667,-8.22885 4.96667,-8.22885 6.38804,-8.53333 6.38804,-8.53333 7.60535,-7.70895 7.60535,-7.70895 7.20264,-5.81948 7.20266,-5.81947 9.94351,-5.8758 9.943525,-5.8758 9.2271,-3.35391 9.22711,-3.35391 9.6,-2.25334 9.6,-2.25334 17.6,0.0443 17.6,0.0443 10.91592,2.31714 10.91591,2.31715 7.75075,2.78463 7.75075,2.78463 8.52487,4.27377 8.52485,4.27378 8.00848,5.34575 8.00847,5.34575 11.34988,11.37143 11.3499,11.37143 6.62135,10.07443 6.62134,10.07443 4.56353,9.6 4.56352,9.6 2.79237,8.53333 2.79238,8.53333 2.08678,9.6 2.08677,9.6 1.23858,12.26667 1.23859,12.26667 -0.70565,11.73333 -0.70564,11.73333 -1.09591,7.46667 -1.09591,7.46666 -2.5735,9.6 -2.5735,9.6 -3.23843,8.40641 -3.23842,8.4064 -5.91574,11.56521 -5.91575,11.56519 -7.0005,10.42839 -7.00049,10.4284 -5.42271,6.93333 -5.42269,6.93333 -9.63341,11.18132 -9.63341,11.18131 -16.71226,16.69241 -16.71227,16.69242 -23.82107,21.22824 -23.82106,21.22824 -52.8,45.32468 -52.799995,45.32467 -4.50232,3.59361 -4.50232,3.59363 -5.09768,0.44536 -5.09768,0.44538 z"
       id="path2417" />
  </g>
</svg>
